<?xml version="1.0" encoding="UTF-8"?>
<!DOCTYPE svg PUBLIC "-//W3C//DTD SVG 1.1//EN" "http://www.w3.org/Graphics/SVG/1.1/DTD/svg11.dtd">
<svg xmlns="http://www.w3.org/2000/svg" xmlns:xlink="http://www.w3.org/1999/xlink" version="1.1" width="580px" height="131px" viewBox="-0.5 -0.5 580 131"><defs/><g><g id="cell-7q7x9BTbeVhqQGe0QuvH-1"><rect x="79" y="20" width="410" height="110" rx="16.5" ry="16.5" fill="#dae8fc" stroke="#6c8ebf" pointer-events="all"/></g><g id="cell-7q7x9BTbeVhqQGe0QuvH-2"><path d="M 104 60 L 104 30 L 464 30 L 464 53.63" fill="none" stroke="rgb(0, 0, 0)" stroke-miterlimit="10" stroke-dasharray="3 3" pointer-events="stroke"/><path d="M 464 58.88 L 460.5 51.88 L 464 53.63 L 467.5 51.88 Z" fill="rgb(0, 0, 0)" stroke="rgb(0, 0, 0)" stroke-miterlimit="10" pointer-events="all"/></g><g id="cell-7q7x9BTbeVhqQGe0QuvH-3"><path d="M 124 75 L 137.63 75" fill="none" stroke="rgb(0, 0, 0)" stroke-miterlimit="10" pointer-events="stroke"/><path d="M 142.88 75 L 135.88 78.5 L 137.63 75 L 135.88 71.5 Z" fill="rgb(0, 0, 0)" stroke="rgb(0, 0, 0)" stroke-miterlimit="10" pointer-events="all"/></g><g id="cell-7q7x9BTbeVhqQGe0QuvH-4"><rect x="84" y="60" width="40" height="30" rx="4.5" ry="4.5" fill="#fff2cc" stroke="#d6b656" pointer-events="all"/><g fill="rgb(0, 0, 0)" font-family="Helvetica" text-anchor="middle" font-size="12px"><text x="103.5" y="79.5">BB</text></g></g><g id="cell-7q7x9BTbeVhqQGe0QuvH-5"><path d="M 164 60 L 164 40 L 404 40 L 404 53.63" fill="none" stroke="rgb(0, 0, 0)" stroke-miterlimit="10" stroke-dasharray="3 3" pointer-events="stroke"/><path d="M 404 58.88 L 400.5 51.88 L 404 53.63 L 407.5 51.88 Z" fill="rgb(0, 0, 0)" stroke="rgb(0, 0, 0)" stroke-miterlimit="10" pointer-events="all"/></g><g id="cell-7q7x9BTbeVhqQGe0QuvH-6"><path d="M 184 75 L 197.63 75" fill="none" stroke="rgb(0, 0, 0)" stroke-miterlimit="10" pointer-events="stroke"/><path d="M 202.88 75 L 195.88 78.5 L 197.63 75 L 195.88 71.5 Z" fill="rgb(0, 0, 0)" stroke="rgb(0, 0, 0)" stroke-miterlimit="10" pointer-events="all"/></g><g id="cell-7q7x9BTbeVhqQGe0QuvH-7"><rect x="144" y="60" width="40" height="30" rx="4.5" ry="4.5" fill="#ffe6cc" stroke="#d79b00" pointer-events="all"/><g fill="rgb(0, 0, 0)" font-family="Helvetica" text-anchor="middle" font-size="12px"><text x="163.5" y="79.5">BB</text></g></g><g id="cell-7q7x9BTbeVhqQGe0QuvH-8"><path d="M 224 60 L 224 50 L 344 50 L 344 53.63" fill="none" stroke="rgb(0, 0, 0)" stroke-miterlimit="10" stroke-dasharray="3 3" pointer-events="stroke"/><path d="M 344 58.88 L 340.5 51.88 L 344 53.63 L 347.5 51.88 Z" fill="rgb(0, 0, 0)" stroke="rgb(0, 0, 0)" stroke-miterlimit="10" pointer-events="all"/></g><g id="cell-7q7x9BTbeVhqQGe0QuvH-9"><path d="M 244 75 L 257.63 75" fill="none" stroke="rgb(0, 0, 0)" stroke-miterlimit="10" pointer-events="stroke"/><path d="M 262.88 75 L 255.88 78.5 L 257.63 75 L 255.88 71.5 Z" fill="rgb(0, 0, 0)" stroke="rgb(0, 0, 0)" stroke-miterlimit="10" pointer-events="all"/></g><g id="cell-7q7x9BTbeVhqQGe0QuvH-10"><rect x="204" y="60" width="40" height="30" rx="4.5" ry="4.5" fill="#ffe6cc" stroke="#d79b00" pointer-events="all"/><g fill="rgb(0, 0, 0)" font-family="Helvetica" text-anchor="middle" font-size="12px"><text x="223.5" y="79.5">BB</text></g></g><g id="cell-7q7x9BTbeVhqQGe0QuvH-11"><path d="M 304 75 L 317.63 75" fill="none" stroke="rgb(0, 0, 0)" stroke-miterlimit="10" pointer-events="stroke"/><path d="M 322.88 75 L 315.88 78.5 L 317.63 75 L 315.88 71.5 Z" fill="rgb(0, 0, 0)" stroke="rgb(0, 0, 0)" stroke-miterlimit="10" pointer-events="all"/></g><g id="cell-7q7x9BTbeVhqQGe0QuvH-12"><rect x="264" y="60" width="40" height="30" rx="4.5" ry="4.5" fill="#f8cecc" stroke="#b85450" pointer-events="all"/><g fill="rgb(0, 0, 0)" font-family="Helvetica" text-anchor="middle" font-size="12px"><text x="283.5" y="79.5">BB</text></g></g><g id="cell-7q7x9BTbeVhqQGe0QuvH-13"><path d="M 364 75 L 377.63 75" fill="none" stroke="rgb(0, 0, 0)" stroke-miterlimit="10" pointer-events="stroke"/><path d="M 382.88 75 L 375.88 78.5 L 377.63 75 L 375.88 71.5 Z" fill="rgb(0, 0, 0)" stroke="rgb(0, 0, 0)" stroke-miterlimit="10" pointer-events="all"/></g><g id="cell-7q7x9BTbeVhqQGe0QuvH-14"><rect x="324" y="60" width="40" height="30" rx="4.5" ry="4.5" fill="#ffe6cc" stroke="#d79b00" pointer-events="all"/><g fill="rgb(0, 0, 0)" font-family="Helvetica" text-anchor="middle" font-size="12px"><text x="343.5" y="79.5">BB</text></g></g><g id="cell-7q7x9BTbeVhqQGe0QuvH-15"><path d="M 424 75 L 437.63 75" fill="none" stroke="rgb(0, 0, 0)" stroke-miterlimit="10" pointer-events="stroke"/><path d="M 442.88 75 L 435.88 78.5 L 437.63 75 L 435.88 71.5 Z" fill="rgb(0, 0, 0)" stroke="rgb(0, 0, 0)" stroke-miterlimit="10" pointer-events="all"/></g><g id="cell-7q7x9BTbeVhqQGe0QuvH-16"><rect x="384" y="60" width="40" height="30" rx="4.5" ry="4.5" fill="#ffe6cc" stroke="#d79b00" pointer-events="all"/><g fill="rgb(0, 0, 0)" font-family="Helvetica" text-anchor="middle" font-size="12px"><text x="403.5" y="79.5">BB</text></g></g><g id="cell-7q7x9BTbeVhqQGe0QuvH-17"><path d="M 484 75 L 504 75 L 515.76 75.17" fill="none" stroke="rgb(0, 0, 0)" stroke-width="2" stroke-miterlimit="10" pointer-events="stroke"/><path d="M 521.76 75.25 L 513.71 79.14 L 515.76 75.17 L 513.82 71.14 Z" fill="rgb(0, 0, 0)" stroke="rgb(0, 0, 0)" stroke-width="2" stroke-miterlimit="10" pointer-events="all"/></g><g id="cell-7q7x9BTbeVhqQGe0QuvH-18"><rect x="444" y="60" width="40" height="30" rx="4.5" ry="4.5" fill="#fff2cc" stroke="#d6b656" pointer-events="all"/><g fill="rgb(0, 0, 0)" font-family="Helvetica" text-anchor="middle" font-size="12px"><text x="463.5" y="79.5">BB</text></g></g><g id="cell-7q7x9BTbeVhqQGe0QuvH-19"><rect x="234" y="0" width="100" height="20" fill="none" stroke="none" pointer-events="all"/><g fill="rgb(0, 0, 0)" font-family="Helvetica" text-anchor="middle" font-size="12px"><text x="283.5" y="14.5">Dilated block</text></g></g><g id="cell-7q7x9BTbeVhqQGe0QuvH-20"><rect x="339" y="100" width="70" height="10" fill="none" stroke="none" pointer-events="all"/><g fill="rgb(0, 0, 0)" font-family="Helvetica" font-style="italic" text-anchor="middle" font-size="14px"><text x="373.5" y="110.5">d</text></g></g><g id="cell-7q7x9BTbeVhqQGe0QuvH-21"><rect x="159" y="100" width="70" height="10" fill="none" stroke="none" pointer-events="all"/><g fill="rgb(0, 0, 0)" font-family="Helvetica" font-style="italic" text-anchor="middle" font-size="14px"><text x="193.5" y="110.5">d</text></g></g><g id="cell-7q7x9BTbeVhqQGe0QuvH-22"><rect x="246.5" y="100" width="75" height="10" fill="none" stroke="none" pointer-events="all"/><g fill="rgb(0, 0, 0)" font-family="Helvetica" font-style="italic" text-anchor="middle" font-size="14px"><text x="283.5" y="110.5">d</text></g></g><g id="cell-7q7x9BTbeVhqQGe0QuvH-23"><rect x="71.5" y="100" width="65" height="10" fill="none" stroke="none" pointer-events="all"/><g fill="rgb(0, 0, 0)" font-family="Helvetica" font-style="italic" text-anchor="middle" font-size="14px"><text x="103.5" y="110.5">d</text></g></g><g id="cell-7q7x9BTbeVhqQGe0QuvH-24"><rect x="431.5" y="100" width="65" height="10" fill="none" stroke="none" pointer-events="all"/><g fill="rgb(0, 0, 0)" font-family="Helvetica" font-style="italic" text-anchor="middle" font-size="14px"><text x="463.5" y="110.5">d</text></g></g><g id="cell-7q7x9BTbeVhqQGe0QuvH-25"><rect x="324" y="90" width="100" height="10" fill="none" stroke="none" transform="rotate(270,374,95)" pointer-events="all"/><path d="M 379 45 L 374 45 L 374 145 L 379 145" fill="none" stroke="rgb(0, 0, 0)" stroke-width="2" stroke-miterlimit="10" transform="rotate(270,374,95)" pointer-events="all"/><path d="M 369 95 L 374 95" fill="none" stroke="rgb(0, 0, 0)" stroke-width="2" stroke-miterlimit="10" transform="rotate(270,374,95)" pointer-events="all"/></g><g id="cell-7q7x9BTbeVhqQGe0QuvH-26"><rect x="144" y="90" width="100" height="10" fill="none" stroke="none" transform="rotate(270,194,95)" pointer-events="all"/><path d="M 199 45 L 194 45 L 194 145 L 199 145" fill="none" stroke="rgb(0, 0, 0)" stroke-width="2" stroke-miterlimit="10" transform="rotate(270,194,95)" pointer-events="all"/><path d="M 189 95 L 194 95" fill="none" stroke="rgb(0, 0, 0)" stroke-width="2" stroke-miterlimit="10" transform="rotate(270,194,95)" pointer-events="all"/></g><g id="cell-7q7x9BTbeVhqQGe0QuvH-27"><path d="M 104 100 L 104 90" fill="none" stroke="rgb(0, 0, 0)" stroke-width="2" stroke-miterlimit="10" pointer-events="stroke"/></g><g id="cell-7q7x9BTbeVhqQGe0QuvH-28"><path d="M 284 90 L 284 100" fill="none" stroke="rgb(0, 0, 0)" stroke-width="2" stroke-miterlimit="10" pointer-events="stroke"/></g><g id="cell-7q7x9BTbeVhqQGe0QuvH-29"><path d="M 464 100 L 464 90" fill="none" stroke="rgb(0, 0, 0)" stroke-width="2" stroke-miterlimit="10" pointer-events="stroke"/></g><g id="cell-7q7x9BTbeVhqQGe0QuvH-30"><path d="M 44 75 L 75.76 75" fill="none" stroke="rgb(0, 0, 0)" stroke-width="2" stroke-miterlimit="10" pointer-events="stroke"/><path d="M 81.76 75 L 73.76 79 L 75.76 75 L 73.76 71 Z" fill="rgb(0, 0, 0)" stroke="rgb(0, 0, 0)" stroke-width="2" stroke-miterlimit="10" pointer-events="all"/></g><g id="cell-7q7x9BTbeVhqQGe0QuvH-31"><rect x="4" y="30" width="65" height="40" fill="none" stroke="none" pointer-events="all"/><g fill="rgb(0, 0, 0)" font-family="Helvetica" text-anchor="middle" font-size="14px"><text x="36" y="55.5">Input tensor</text></g></g><g id="cell-7q7x9BTbeVhqQGe0QuvH-32"><rect x="504" y="30" width="65" height="40" fill="none" stroke="none" pointer-events="all"/><g fill="rgb(0, 0, 0)" font-family="Helvetica" text-anchor="middle" font-size="14px"><text x="536" y="55.5">Output tensor</text></g></g><g id="cell-6PoCf-zPKJlFIJW5Y8Ov-1"><rect x="71.5" y="115" width="65" height="10" fill="none" stroke="none" pointer-events="all"/><g fill="rgb(0, 0, 0)" font-family="Helvetica" text-anchor="middle" font-size="14px"><text x="103.5" y="125.5">1, 1, 2</text></g></g><g id="cell-6PoCf-zPKJlFIJW5Y8Ov-2"><rect x="159" y="115" width="70" height="10" fill="none" stroke="none" pointer-events="all"/><g fill="rgb(0, 0, 0)" font-family="Helvetica" text-anchor="middle" font-size="14px"><text x="193.5" y="125.5">1, 2, 4</text></g></g><g id="cell-6PoCf-zPKJlFIJW5Y8Ov-4"><rect x="246.5" y="115" width="75" height="10" fill="none" stroke="none" pointer-events="all"/><g fill="rgb(0, 0, 0)" font-family="Helvetica" text-anchor="middle" font-size="14px"><text x="283.5" y="125.5">4, 8, 16</text></g></g><g id="cell-6PoCf-zPKJlFIJW5Y8Ov-5"><rect x="339" y="115" width="70" height="10" fill="none" stroke="none" pointer-events="all"/><g fill="rgb(0, 0, 0)" font-family="Helvetica" text-anchor="middle" font-size="14px"><text x="373.5" y="125.5">1, 2, 4</text></g></g><g id="cell-6PoCf-zPKJlFIJW5Y8Ov-6"><rect x="431.5" y="115" width="65" height="10" fill="none" stroke="none" pointer-events="all"/><g fill="rgb(0, 0, 0)" font-family="Helvetica" text-anchor="middle" font-size="14px"><text x="463.5" y="125.5">1, 1, 2</text></g></g></g></svg>