<?xml version="1.0" encoding="UTF-8"?>
<!DOCTYPE svg PUBLIC "-//W3C//DTD SVG 1.1//EN" "http://www.w3.org/Graphics/SVG/1.1/DTD/svg11.dtd">
<svg xmlns="http://www.w3.org/2000/svg" xmlns:xlink="http://www.w3.org/1999/xlink" version="1.1" width="921px" height="632px" viewBox="-0.5 -0.5 921 632"><defs/><g><ellipse cx="210" cy="99.94" rx="30" ry="30" fill="#dae8fc" stroke="#6c8ebf" pointer-events="none"/><g fill="rgb(0, 0, 0)" font-family="Times New Roman" pointer-events="none" text-anchor="middle" font-size="14px"><text x="209.5" y="105.44">D 1.1</text></g><path d="M 210 129.94 Q 210 220 233.63 220" fill="none" stroke="#ff0000" stroke-miterlimit="10" pointer-events="none"/><path d="M 238.88 220 L 231.88 223.5 L 233.63 220 L 231.88 216.5 Z" fill="#ff0000" stroke="#ff0000" stroke-miterlimit="10" pointer-events="none"/><path d="M 270 250 Q 270 340 293.63 340" fill="none" stroke="#ff0000" stroke-miterlimit="10" pointer-events="none"/><path d="M 298.88 340 L 291.88 343.5 L 293.63 340 L 291.88 336.5 Z" fill="#ff0000" stroke="#ff0000" stroke-miterlimit="10" pointer-events="none"/><path d="M 330 370 Q 330 460 353.63 460" fill="none" stroke="#ff0000" stroke-miterlimit="10" pointer-events="none"/><path d="M 358.88 460 L 351.88 463.5 L 353.63 460 L 351.88 456.5 Z" fill="#ff0000" stroke="#ff0000" stroke-miterlimit="10" pointer-events="none"/><path d="M 390 490 Q 390 580 433.63 580" fill="none" stroke="#ff0000" stroke-miterlimit="10" pointer-events="none"/><path d="M 438.88 580 L 431.88 583.5 L 433.63 580 L 431.88 576.5 Z" fill="#ff0000" stroke="#ff0000" stroke-miterlimit="10" pointer-events="none"/><ellipse cx="600" cy="340" rx="30" ry="30" fill="#b0e3e6" stroke="#0e8088" pointer-events="none"/><g fill="rgb(0, 0, 0)" font-family="Times New Roman" pointer-events="none" text-anchor="middle" font-size="14px"><text x="599.5" y="345.5">D 3.3</text></g><path d="M 360 340 Q 360 300 465 300 Q 570 300 570 333.63" fill="none" stroke="rgb(0, 0, 0)" stroke-miterlimit="10" stroke-dasharray="1 2" pointer-events="none"/><path d="M 570 338.88 L 566.5 331.88 L 570 333.63 L 573.5 331.88 Z" fill="rgb(0, 0, 0)" stroke="rgb(0, 0, 0)" stroke-miterlimit="10" pointer-events="none"/><path d="M 500 580 Q 621.2 580 621.21 367.58" fill="none" stroke="#cc0066" stroke-miterlimit="10" stroke-dasharray="3 3" pointer-events="none"/><path d="M 621.21 362.33 L 624.71 369.33 L 621.21 367.58 L 617.71 369.33 Z" fill="#cc0066" stroke="#cc0066" stroke-miterlimit="10" pointer-events="none"/><ellipse cx="660" cy="220" rx="30" ry="30" fill="#dae8fc" stroke="#6c8ebf" pointer-events="none"/><g fill="rgb(0, 0, 0)" font-family="Times New Roman" pointer-events="none" text-anchor="middle" font-size="14px"><text x="659.5" y="225.5">D 2.4</text></g><path d="M 300 220 Q 300 170 465 170 Q 630 170 630 213.63" fill="none" stroke="rgb(0, 0, 0)" stroke-miterlimit="10" stroke-dasharray="1 2" pointer-events="none"/><path d="M 630 218.88 L 626.5 211.88 L 630 213.63 L 633.5 211.88 Z" fill="rgb(0, 0, 0)" stroke="rgb(0, 0, 0)" stroke-miterlimit="10" pointer-events="none"/><path d="M 630 340 Q 660 340 660 256.37" fill="none" stroke="#00ff00" stroke-miterlimit="10" pointer-events="none"/><path d="M 660 251.12 L 663.5 258.12 L 660 256.37 L 656.5 258.12 Z" fill="#00ff00" stroke="#00ff00" stroke-miterlimit="10" pointer-events="none"/><ellipse cx="720" cy="99.94" rx="30" ry="30" fill="#dae8fc" stroke="#6c8ebf" pointer-events="none"/><g fill="rgb(0, 0, 0)" font-family="Times New Roman" pointer-events="none" text-anchor="middle" font-size="14px"><text x="719.5" y="105.44">D 1.5</text></g><path d="M 240 99.94 Q 240 30 465 30 Q 690 30 690 93.57" fill="none" stroke="rgb(0, 0, 0)" stroke-miterlimit="10" stroke-dasharray="1 2" pointer-events="none"/><path d="M 690 98.82 L 686.5 91.82 L 690 93.57 L 693.5 91.82 Z" fill="rgb(0, 0, 0)" stroke="rgb(0, 0, 0)" stroke-miterlimit="10" pointer-events="none"/><path d="M 690 220 Q 720 220 720 136.31" fill="none" stroke="#00ff00" stroke-miterlimit="10" pointer-events="none"/><path d="M 720 131.06 L 723.5 138.06 L 720 136.31 L 716.5 138.06 Z" fill="#00ff00" stroke="#00ff00" stroke-miterlimit="10" pointer-events="none"/><path d="M 495 340 L 563.63 340" fill="none" stroke="#000000" stroke-miterlimit="10" stroke-dasharray="1 2" pointer-events="none"/><path d="M 568.88 340 L 561.88 343.5 L 563.63 340 L 561.88 336.5 Z" fill="#000000" stroke="#000000" stroke-miterlimit="10" pointer-events="none"/><ellipse cx="470" cy="340" rx="25" ry="25" fill="none" stroke="rgb(0, 0, 0)" stroke-dasharray="1 2" pointer-events="none"/><g fill="rgb(0, 0, 0)" font-family="Times New Roman" pointer-events="none" text-anchor="middle" font-size="14px"><text x="469.5" y="345.5">B 3.2</text></g><path d="M 360 340 L 438.63 340" fill="none" stroke="#000000" stroke-miterlimit="10" stroke-dasharray="1 2" pointer-events="none"/><path d="M 443.88 340 L 436.88 343.5 L 438.63 340 L 436.88 336.5 Z" fill="#000000" stroke="#000000" stroke-miterlimit="10" pointer-events="none"/><path d="M 420 460 Q 470 460 470 371.37" fill="none" stroke="#00ff00" stroke-miterlimit="10" pointer-events="none"/><path d="M 470 366.12 L 473.5 373.12 L 470 371.37 L 466.5 373.12 Z" fill="#00ff00" stroke="#00ff00" stroke-miterlimit="10" pointer-events="none"/><path d="M 435 220 Q 435 180 532.5 180 Q 630 180 630 213.63" fill="none" stroke="#000000" stroke-miterlimit="10" stroke-dasharray="1 2" pointer-events="none"/><path d="M 630 218.88 L 626.5 211.88 L 630 213.63 L 633.5 211.88 Z" fill="#000000" stroke="#000000" stroke-miterlimit="10" pointer-events="none"/><ellipse cx="410" cy="220" rx="25" ry="25" fill="none" stroke="rgb(0, 0, 0)" stroke-dasharray="1 2" pointer-events="none"/><g fill="rgb(0, 0, 0)" font-family="Times New Roman" pointer-events="none" text-anchor="middle" font-size="14px"><text x="409.5" y="225.5">B 2.2</text></g><path d="M 240 99.94 L 380.1 215.94" fill="none" stroke="#000000" stroke-miterlimit="10" pointer-events="none"/><path d="M 384.14 219.29 L 376.52 217.52 L 380.1 215.94 L 380.98 212.13 Z" fill="#000000" stroke="#000000" stroke-miterlimit="10" pointer-events="none"/><path d="M 300 220 L 378.63 220" fill="none" stroke="#000000" stroke-miterlimit="10" stroke-dasharray="1 2" pointer-events="none"/><path d="M 383.88 220 L 376.88 223.5 L 378.63 220 L 376.88 216.5 Z" fill="#000000" stroke="#000000" stroke-miterlimit="10" pointer-events="none"/><path d="M 360 340 Q 410 340 410 251.37" fill="none" stroke="#00ff00" stroke-miterlimit="10" pointer-events="none"/><path d="M 410 246.12 L 413.5 253.12 L 410 251.37 L 406.5 253.12 Z" fill="#00ff00" stroke="#00ff00" stroke-miterlimit="10" pointer-events="none"/><path d="M 565 220 L 623.63 220" fill="none" stroke="#000000" stroke-miterlimit="10" stroke-dasharray="1 2" pointer-events="none"/><path d="M 628.88 220 L 621.88 223.5 L 623.63 220 L 621.88 216.5 Z" fill="#000000" stroke="#000000" stroke-miterlimit="10" pointer-events="none"/><ellipse cx="540" cy="220" rx="25" ry="25" fill="none" stroke="rgb(0, 0, 0)" stroke-dasharray="1 2" pointer-events="none"/><g fill="rgb(0, 0, 0)" font-family="Times New Roman" pointer-events="none" text-anchor="middle" font-size="14px"><text x="539.5" y="225.5">B 2.3</text></g><path d="M 300 220 Q 300 180 407.5 180 Q 515 180 515 213.63" fill="none" stroke="#000000" stroke-miterlimit="10" stroke-dasharray="1 2" pointer-events="none"/><path d="M 515 218.88 L 511.5 211.88 L 515 213.63 L 518.5 211.88 Z" fill="#000000" stroke="#000000" stroke-miterlimit="10" pointer-events="none"/><path d="M 420 460 Q 557.7 460 557.68 244.05" fill="none" stroke="#cc0066" stroke-miterlimit="10" stroke-dasharray="3 3" pointer-events="none"/><path d="M 557.68 238.8 L 561.18 245.8 L 557.68 244.05 L 554.18 245.8 Z" fill="#cc0066" stroke="#cc0066" stroke-miterlimit="10" pointer-events="none"/><path d="M 495 340 Q 540 340 540 251.37" fill="none" stroke="#00ff00" stroke-miterlimit="10" pointer-events="none"/><path d="M 540 246.12 L 543.5 253.12 L 540 251.37 L 536.5 253.12 Z" fill="#00ff00" stroke="#00ff00" stroke-miterlimit="10" pointer-events="none"/><path d="M 435 220 L 508.63 220" fill="none" stroke="#000000" stroke-miterlimit="10" stroke-dasharray="1 2" pointer-events="none"/><path d="M 513.88 220 L 506.88 223.5 L 508.63 220 L 506.88 216.5 Z" fill="#000000" stroke="#000000" stroke-miterlimit="10" pointer-events="none"/><path d="M 370 99.95 Q 370 40 530 40 Q 690 40 690 93.57" fill="none" stroke="#000000" stroke-miterlimit="10" stroke-dasharray="1 2" pointer-events="none"/><path d="M 690 98.82 L 686.5 91.82 L 690 93.57 L 693.5 91.82 Z" fill="#000000" stroke="#000000" stroke-miterlimit="10" pointer-events="none"/><path d="M 370 99.95 L 510.09 215.94" fill="none" stroke="#000000" stroke-miterlimit="10" pointer-events="none"/><path d="M 514.14 219.29 L 506.51 217.52 L 510.09 215.94 L 510.98 212.13 Z" fill="#000000" stroke="#000000" stroke-miterlimit="10" pointer-events="none"/><ellipse cx="345" cy="99.95" rx="25" ry="25" fill="none" stroke="rgb(0, 0, 0)" stroke-dasharray="1 2" pointer-events="none"/><g fill="rgb(0, 0, 0)" font-family="Times New Roman" pointer-events="none" text-anchor="middle" font-size="14px"><text x="344.5" y="105.45">B 1.2</text></g><path d="M 240 99.94 L 280 99.9 L 313.63 99.94" fill="none" stroke="#000000" stroke-miterlimit="10" stroke-dasharray="1 2" pointer-events="none"/><path d="M 318.88 99.95 L 311.88 103.44 L 313.63 99.94 L 311.89 96.44 Z" fill="#000000" stroke="#000000" stroke-miterlimit="10" pointer-events="none"/><path d="M 300 220 Q 345 220 345 131.32" fill="none" stroke="#00ff00" stroke-miterlimit="10" pointer-events="none"/><path d="M 345 126.07 L 348.5 133.07 L 345 131.32 L 341.5 133.07 Z" fill="#00ff00" stroke="#00ff00" stroke-miterlimit="10" pointer-events="none"/><path d="M 495 99.94 Q 495 50 592.5 50 Q 690 50 690 93.57" fill="none" stroke="#000000" stroke-miterlimit="10" stroke-dasharray="1 2" pointer-events="none"/><path d="M 690 98.82 L 686.5 91.82 L 690 93.57 L 693.5 91.82 Z" fill="#000000" stroke="#000000" stroke-miterlimit="10" pointer-events="none"/><path d="M 495 99.94 L 625.24 215.77" fill="none" stroke="#000000" stroke-miterlimit="10" pointer-events="none"/><path d="M 629.16 219.26 L 621.61 217.22 L 625.24 215.77 L 626.26 211.99 Z" fill="#000000" stroke="#000000" stroke-miterlimit="10" pointer-events="none"/><ellipse cx="470" cy="99.94" rx="25" ry="25" fill="none" stroke="rgb(0, 0, 0)" stroke-dasharray="1 2" pointer-events="none"/><g fill="rgb(0, 0, 0)" font-family="Times New Roman" pointer-events="none" text-anchor="middle" font-size="14px"><text x="469.5" y="105.44">B 1.3</text></g><path d="M 240 99.94 Q 240 50 342.5 50 Q 445 50 445 93.57" fill="none" stroke="#000000" stroke-miterlimit="10" stroke-dasharray="1 2" pointer-events="none"/><path d="M 445 98.82 L 441.5 91.82 L 445 93.57 L 448.5 91.82 Z" fill="#000000" stroke="#000000" stroke-miterlimit="10" pointer-events="none"/><path d="M 360 340 Q 470 340 470 131.31" fill="none" stroke="#cc0066" stroke-miterlimit="10" stroke-dasharray="3 3" pointer-events="none"/><path d="M 470 126.06 L 473.5 133.06 L 470 131.31 L 466.5 133.06 Z" fill="#cc0066" stroke="#cc0066" stroke-miterlimit="10" pointer-events="none"/><path d="M 435 220 Q 470 220 470 131.31" fill="none" stroke="#00ff00" stroke-miterlimit="10" pointer-events="none"/><path d="M 470 126.06 L 473.5 133.06 L 470 131.31 L 466.5 133.06 Z" fill="#00ff00" stroke="#00ff00" stroke-miterlimit="10" pointer-events="none"/><path d="M 370 99.95 L 407.5 100 L 438.63 99.95" fill="none" stroke="#000000" stroke-miterlimit="10" stroke-dasharray="1 2" pointer-events="none"/><path d="M 443.88 99.94 L 436.89 103.45 L 438.63 99.95 L 436.88 96.45 Z" fill="#000000" stroke="#000000" stroke-miterlimit="10" pointer-events="none"/><path d="M 620 99.95 L 655 100 L 683.63 99.95" fill="none" stroke="#000000" stroke-miterlimit="10" stroke-dasharray="1 2" pointer-events="none"/><path d="M 688.88 99.94 L 681.89 103.45 L 683.63 99.95 L 681.88 96.45 Z" fill="#000000" stroke="#000000" stroke-miterlimit="10" pointer-events="none"/><ellipse cx="595" cy="99.95" rx="25" ry="25" fill="none" stroke="rgb(0, 0, 0)" stroke-dasharray="1 2" pointer-events="none"/><g fill="rgb(0, 0, 0)" font-family="Times New Roman" pointer-events="none" text-anchor="middle" font-size="14px"><text x="594.5" y="105.45">B 1.4</text></g><path d="M 240 99.94 Q 240 40 405 40 Q 570 40 570 93.58" fill="none" stroke="#000000" stroke-miterlimit="10" stroke-dasharray="1 2" pointer-events="none"/><path d="M 570 98.83 L 566.5 91.83 L 570 93.58 L 573.5 91.83 Z" fill="#000000" stroke="#000000" stroke-miterlimit="10" pointer-events="none"/><path d="M 565 220 Q 595 220 595 131.32" fill="none" stroke="#00ff00" stroke-miterlimit="10" pointer-events="none"/><path d="M 595 126.07 L 598.5 133.07 L 595 131.32 L 591.5 133.07 Z" fill="#00ff00" stroke="#00ff00" stroke-miterlimit="10" pointer-events="none"/><path d="M 370 99.95 Q 370 50 470 50 Q 570 50 570 93.58" fill="none" stroke="#000000" stroke-miterlimit="10" stroke-dasharray="1 2" pointer-events="none"/><path d="M 570 98.83 L 566.5 91.83 L 570 93.58 L 573.5 91.83 Z" fill="#000000" stroke="#000000" stroke-miterlimit="10" pointer-events="none"/><path d="M 495 99.94 L 532.5 99.9 L 563.63 99.94" fill="none" stroke="#000000" stroke-miterlimit="10" stroke-dasharray="1 2" pointer-events="none"/><path d="M 568.88 99.95 L 561.88 103.44 L 563.63 99.94 L 561.89 96.44 Z" fill="#000000" stroke="#000000" stroke-miterlimit="10" pointer-events="none"/><path d="M 100 99.95 L 173.63 99.94" fill="none" stroke="rgb(0, 0, 0)" stroke-miterlimit="10" pointer-events="none"/><path d="M 178.88 99.94 L 171.88 103.44 L 173.63 99.94 L 171.88 96.44 Z" fill="rgb(0, 0, 0)" stroke="rgb(0, 0, 0)" stroke-miterlimit="10" pointer-events="none"/><rect x="0" y="72.46" width="100" height="54.97" rx="8.25" ry="8.25" fill="rgb(255, 255, 255)" stroke="rgb(0, 0, 0)" pointer-events="none"/><g fill="rgb(0, 0, 0)" font-family="Times New Roman" pointer-events="none" text-anchor="middle" font-size="14px"><text x="49.5" y="105.45">Input image</text></g><rect x="820" y="72.46" width="100" height="54.97" rx="8.25" ry="8.25" fill="rgb(255, 255, 255)" stroke="rgb(0, 0, 0)" pointer-events="none"/><g fill="rgb(0, 0, 0)" font-family="Times New Roman" pointer-events="none" text-anchor="middle" font-size="14px"><text x="869.5" y="105.45">Output image</text></g><path d="M 750 99.94 L 813.63 99.94" fill="none" stroke="#3700cc" stroke-miterlimit="10" pointer-events="none"/><path d="M 818.88 99.94 L 811.88 103.44 L 813.63 99.94 L 811.88 96.44 Z" fill="#3700cc" stroke="#3700cc" stroke-miterlimit="10" pointer-events="none"/><g fill="rgb(0, 0, 0)" font-family="Times New Roman" pointer-events="none" text-anchor="middle" font-size="14px"><text x="49.5" y="56.94">512×512×1</text></g><g fill="#FF8000" font-family="Times New Roman" pointer-events="none" text-anchor="middle" font-size="12px"><text x="189.5" y="144.44">8</text></g><g fill="#FF8000" font-family="Times New Roman" pointer-events="none" text-anchor="middle" font-size="12px"><text x="249.5" y="264.5">16</text></g><g fill="#FF8000" font-family="Times New Roman" pointer-events="none" text-anchor="middle" font-size="12px"><text x="309.5" y="384.5">32</text></g><g fill="#FF8000" font-family="Times New Roman" pointer-events="none" text-anchor="middle" font-size="12px"><text x="374.5" y="504.5">64</text></g><g fill="#FF8000" font-family="Times New Roman" pointer-events="none" text-anchor="middle" font-size="12px"><text x="469.5" y="624.5">128</text></g><g fill="#FF8000" font-family="Times New Roman" pointer-events="none" text-anchor="middle" font-size="12px"><text x="524.5" y="504.5">64</text></g><g fill="#FF8000" font-family="Times New Roman" pointer-events="none" text-anchor="middle" font-size="12px"><text x="584.5" y="384.5">32</text></g><g fill="#FF8000" font-family="Times New Roman" pointer-events="none" text-anchor="middle" font-size="12px"><text x="644.5" y="259.5">16</text></g><g fill="#FF8000" font-family="Times New Roman" pointer-events="none" text-anchor="middle" font-size="12px"><text x="704.5" y="141.93">8</text></g><g fill="#000000" font-family="Times New Roman" pointer-events="none" text-anchor="middle" font-size="14px"><text x="469.5" y="20.5">Skip connections</text></g><g fill="#6c8ebf" font-family="Times New Roman" pointer-events="none" text-anchor="middle" font-size="14px"><text x="209.5" y="55.47">Dilated blocks</text></g><g fill="#00FF00" font-family="Times New Roman" pointer-events="none" text-anchor="middle" font-size="14px"><text x="489.5" y="540.5">Up-sampling</text></g><g fill="#FF0000" font-family="Times New Roman" pointer-events="none" text-anchor="middle" font-size="14px"><text x="164.5" y="190.5">Max-pooling</text></g><g fill="#FF8000" font-family="Times New Roman" pointer-events="none" text-anchor="middle" font-size="14px"><text x="202" y="265.5">Filter count</text></g><g fill="rgb(0, 0, 0)" font-family="Times New Roman" pointer-events="none" text-anchor="middle" font-size="14px"><text x="869.5" y="56.94">512×512×1</text></g><ellipse cx="410" cy="400" rx="10" ry="10" fill="rgb(255, 255, 255)" stroke="rgb(0, 0, 0)" pointer-events="none"/><path d="M 400 400 L 420 400" fill="none" stroke="rgb(0, 0, 0)" stroke-miterlimit="10" pointer-events="none"/><path d="M 410 390 L 410 410" fill="none" stroke="rgb(0, 0, 0)" stroke-miterlimit="10" pointer-events="none"/><path d="M 240 99.94 L 406.78 384.51" fill="none" stroke="#ff00ff" stroke-miterlimit="10" pointer-events="none"/><path d="M 409.43 389.04 L 402.88 384.77 L 406.78 384.51 L 408.91 381.23 Z" fill="#ff00ff" stroke="#ff00ff" stroke-miterlimit="10" pointer-events="none"/><path d="M 300 220 L 406.54 384.65" fill="none" stroke="#cc0066" stroke-miterlimit="10" pointer-events="none"/><path d="M 409.39 389.06 L 402.65 385.09 L 406.54 384.65 L 408.53 381.28 Z" fill="#cc0066" stroke="#cc0066" stroke-miterlimit="10" pointer-events="none"/><path d="M 360 340 L 405.5 385.5" fill="none" stroke="#000000" stroke-miterlimit="10" pointer-events="none"/><path d="M 409.21 389.21 L 401.78 386.73 L 405.5 385.5 L 406.73 381.78 Z" fill="#000000" stroke="#000000" stroke-miterlimit="10" pointer-events="none"/><path d="M 380 285 L 470 285 L 470 308.63" fill="none" stroke="#2d7600" stroke-miterlimit="10" pointer-events="none"/><path d="M 470 313.88 L 466.5 306.88 L 470 308.63 L 473.5 306.88 Z" fill="#2d7600" stroke="#2d7600" stroke-miterlimit="10" pointer-events="none"/><ellipse cx="370" cy="285" rx="10" ry="10" fill="rgb(255, 255, 255)" stroke="rgb(0, 0, 0)" pointer-events="none"/><path d="M 360 285 L 380 285" fill="none" stroke="rgb(0, 0, 0)" stroke-miterlimit="10" pointer-events="none"/><path d="M 370 275 L 370 295" fill="none" stroke="rgb(0, 0, 0)" stroke-miterlimit="10" pointer-events="none"/><path d="M 240 99.94 L 366.2 269.89" fill="none" stroke="#cc0066" stroke-miterlimit="10" pointer-events="none"/><path d="M 369.33 274.1 L 362.35 270.57 L 366.2 269.89 L 367.97 266.4 Z" fill="#cc0066" stroke="#cc0066" stroke-miterlimit="10" pointer-events="none"/><path d="M 300 220 L 364.99 271.07" fill="none" stroke="#000000" stroke-miterlimit="10" pointer-events="none"/><path d="M 369.12 274.31 L 361.45 272.74 L 364.99 271.07 L 365.78 267.23 Z" fill="#000000" stroke="#000000" stroke-miterlimit="10" pointer-events="none"/><path d="M 520 285 L 600 285 L 600 303.63" fill="none" stroke="#2d7600" stroke-miterlimit="10" pointer-events="none"/><path d="M 600 308.88 L 596.5 301.88 L 600 303.63 L 603.5 301.88 Z" fill="#2d7600" stroke="#2d7600" stroke-miterlimit="10" pointer-events="none"/><ellipse cx="510" cy="285" rx="10" ry="10" fill="rgb(255, 255, 255)" stroke="rgb(0, 0, 0)" pointer-events="none"/><path d="M 500 285 L 520 285" fill="none" stroke="rgb(0, 0, 0)" stroke-miterlimit="10" pointer-events="none"/><path d="M 510 275 L 510 295" fill="none" stroke="rgb(0, 0, 0)" stroke-miterlimit="10" pointer-events="none"/><path d="M 435 220 L 504.86 271.23" fill="none" stroke="#000000" stroke-miterlimit="10" pointer-events="none"/><path d="M 509.1 274.34 L 501.38 273.02 L 504.86 271.23 L 505.52 267.38 Z" fill="#000000" stroke="#000000" stroke-miterlimit="10" pointer-events="none"/><path d="M 370 99.95 L 506.02 270.03" fill="none" stroke="#cc0066" stroke-miterlimit="10" pointer-events="none"/><path d="M 509.3 274.13 L 502.2 270.85 L 506.02 270.03 L 507.66 266.47 Z" fill="#cc0066" stroke="#cc0066" stroke-miterlimit="10" pointer-events="none"/><path d="M 740 330 L 741.18 127.52" fill="none" stroke="#2d7600" stroke-miterlimit="10" pointer-events="none"/><path d="M 741.21 122.27 L 744.67 129.29 L 741.18 127.52 L 737.67 129.25 Z" fill="#2d7600" stroke="#2d7600" stroke-miterlimit="10" pointer-events="none"/><ellipse cx="740" cy="340" rx="10" ry="10" fill="rgb(255, 255, 255)" stroke="rgb(0, 0, 0)" pointer-events="none"/><path d="M 730 340 L 750 340" fill="none" stroke="rgb(0, 0, 0)" stroke-miterlimit="10" pointer-events="none"/><path d="M 740 330 L 740 350" fill="none" stroke="rgb(0, 0, 0)" stroke-miterlimit="10" pointer-events="none"/><path d="M 500 580 Q 740 580 740 356.37" fill="none" stroke="#ff8000" stroke-miterlimit="10" stroke-dasharray="3 3" pointer-events="none"/><path d="M 740 351.12 L 743.5 358.12 L 740 356.37 L 736.5 358.12 Z" fill="#ff8000" stroke="#ff8000" stroke-miterlimit="10" pointer-events="none"/><path d="M 630 340 L 723.63 340" fill="none" stroke="#cc0066" stroke-miterlimit="10" stroke-dasharray="3 3" pointer-events="none"/><path d="M 728.88 340 L 721.88 343.5 L 723.63 340 L 721.88 336.5 Z" fill="#cc0066" stroke="#cc0066" stroke-miterlimit="10" pointer-events="none"/><path d="M 680 450 L 681.18 247.58" fill="none" stroke="#2d7600" stroke-miterlimit="10" pointer-events="none"/><path d="M 681.21 242.33 L 684.67 249.35 L 681.18 247.58 L 677.67 249.31 Z" fill="#2d7600" stroke="#2d7600" stroke-miterlimit="10" pointer-events="none"/><ellipse cx="680" cy="460" rx="10" ry="10" fill="rgb(255, 255, 255)" stroke="rgb(0, 0, 0)" pointer-events="none"/><path d="M 670 460 L 690 460" fill="none" stroke="rgb(0, 0, 0)" stroke-miterlimit="10" pointer-events="none"/><path d="M 680 450 L 680 470" fill="none" stroke="rgb(0, 0, 0)" stroke-miterlimit="10" pointer-events="none"/><path d="M 500 580 Q 680 580 680 476.37" fill="none" stroke="#ff00ff" stroke-miterlimit="10" stroke-dasharray="3 3" pointer-events="none"/><path d="M 680 471.12 L 683.5 478.12 L 680 476.37 L 676.5 478.12 Z" fill="#ff00ff" stroke="#ff00ff" stroke-miterlimit="10" pointer-events="none"/><path d="M 585 240 L 612.7 240 L 612.68 124" fill="none" stroke="#2d7600" stroke-miterlimit="10" pointer-events="none"/><path d="M 612.68 118.75 L 616.18 125.75 L 612.68 124 L 609.18 125.75 Z" fill="#2d7600" stroke="#2d7600" stroke-miterlimit="10" pointer-events="none"/><ellipse cx="540" cy="460" rx="30" ry="30" fill="#b0e3e6" stroke="#0e8088" pointer-events="none"/><g fill="rgb(0, 0, 0)" font-family="Times New Roman" pointer-events="none" text-anchor="middle" font-size="14px"><text x="539.5" y="465.5">D 4.2</text></g><path d="M 420 460 L 503.63 460" fill="none" stroke="rgb(0, 0, 0)" stroke-miterlimit="10" stroke-dasharray="1 2" pointer-events="none"/><path d="M 508.88 460 L 501.88 463.5 L 503.63 460 L 501.88 456.5 Z" fill="rgb(0, 0, 0)" stroke="rgb(0, 0, 0)" stroke-miterlimit="10" pointer-events="none"/><path d="M 500 580 Q 540 580 540 496.37" fill="none" stroke="#00ff00" stroke-miterlimit="10" pointer-events="none"/><path d="M 540 491.12 L 543.5 498.12 L 540 496.37 L 536.5 498.12 Z" fill="#00ff00" stroke="#00ff00" stroke-miterlimit="10" pointer-events="none"/><path d="M 570 460 Q 600 460 600 376.37" fill="none" stroke="#00ff00" stroke-miterlimit="10" pointer-events="none"/><path d="M 600 371.12 L 603.5 378.12 L 600 376.37 L 596.5 378.12 Z" fill="#00ff00" stroke="#00ff00" stroke-miterlimit="10" pointer-events="none"/><path d="M 420 400 L 540 400 L 540 423.63" fill="none" stroke="#2d7600" stroke-miterlimit="10" pointer-events="none"/><path d="M 540 428.88 L 536.5 421.88 L 540 423.63 L 543.5 421.88 Z" fill="#2d7600" stroke="#2d7600" stroke-miterlimit="10" pointer-events="none"/><path d="M 570 460 Q 740 460 740 356.37" fill="none" stroke="#ff00ff" stroke-miterlimit="10" stroke-dasharray="3 3" pointer-events="none"/><path d="M 740 351.12 L 743.5 358.12 L 740 356.37 L 736.5 358.12 Z" fill="#ff00ff" stroke="#ff00ff" stroke-miterlimit="10" pointer-events="none"/><path d="M 570 460 L 663.63 460" fill="none" stroke="#cc0066" stroke-miterlimit="10" stroke-dasharray="3 3" pointer-events="none"/><path d="M 668.88 460 L 661.88 463.5 L 663.63 460 L 661.88 456.5 Z" fill="#cc0066" stroke="#cc0066" stroke-miterlimit="10" pointer-events="none"/><ellipse cx="575" cy="240" rx="10" ry="10" fill="rgb(255, 255, 255)" stroke="rgb(0, 0, 0)" pointer-events="none"/><path d="M 565 240 L 585 240" fill="none" stroke="rgb(0, 0, 0)" stroke-miterlimit="10" pointer-events="none"/><path d="M 575 230 L 575 250" fill="none" stroke="rgb(0, 0, 0)" stroke-miterlimit="10" pointer-events="none"/><path d="M 420 460 Q 575 460 575 256.37" fill="none" stroke="#ff00ff" stroke-miterlimit="10" stroke-dasharray="3 3" pointer-events="none"/><path d="M 575 251.12 L 578.5 258.12 L 575 256.37 L 571.5 258.12 Z" fill="#ff00ff" stroke="#ff00ff" stroke-miterlimit="10" pointer-events="none"/><path d="M 495 340 Q 575 340 575 256.37" fill="none" stroke="#cc0066" stroke-miterlimit="10" stroke-dasharray="3 3" pointer-events="none"/><path d="M 575 251.12 L 578.5 258.12 L 575 256.37 L 571.5 258.12 Z" fill="#cc0066" stroke="#cc0066" stroke-miterlimit="10" pointer-events="none"/><g fill="#ffffff" font-family="Times New Roman" pointer-events="none" text-anchor="middle" font-size="12px" transform="rotate(90,763.13,240.01)"><text x="762.63" y="244.51">Concatenate + Intermediate block</text></g><g fill="#ff8000" font-family="Times New Roman" pointer-events="none" text-anchor="middle" font-size="14px"><text x="734.5" y="535.5">Multi-scale</text></g><g fill="#FF00FF" font-family="Times New Roman" pointer-events="none" text-anchor="middle" font-size="14px"><text x="749.5" y="558">skip connections</text></g><g fill="#000000" font-family="Times New Roman" pointer-events="none" text-anchor="middle" font-size="14px"><text x="469.5" y="70.41">Base blocks</text></g><g fill="#7F00FF" font-family="Times New Roman" pointer-events="none" text-anchor="middle" font-size="14px"><text x="774.5" y="65.38">Output convolution</text></g><g fill="#FF8000" font-family="Times New Roman" pointer-events="none" text-anchor="middle" font-size="12px"><text x="654.5" y="484.5">32</text></g><g fill="#FF8000" font-family="Times New Roman" pointer-events="none" text-anchor="middle" font-size="12px"><text x="384.5" y="269.5">64</text></g><g fill="#FF8000" font-family="Times New Roman" pointer-events="none" text-anchor="middle" font-size="12px"><text x="424.5" y="384.5">192</text></g><g fill="#FF8000" font-family="Times New Roman" pointer-events="none" text-anchor="middle" font-size="12px"><text x="524.5" y="269.5">64</text></g><g fill="#FF8000" font-family="Times New Roman" pointer-events="none" text-anchor="middle" font-size="12px"><text x="594.5" y="264.5">16</text></g><g fill="#FF8000" font-family="Times New Roman" pointer-events="none" text-anchor="middle" font-size="12px"><text x="719.5" y="359.5">24</text></g><path d="M 142.5 70 L 117.5 70 L 117.5 270 L 142.5 270" fill="none" stroke="#6c8ebf" stroke-miterlimit="10" stroke-dasharray="3 3" pointer-events="none"/><path d="M 92.5 170 L 117.5 170" fill="none" stroke="#6c8ebf" stroke-miterlimit="10" stroke-dasharray="3 3" pointer-events="none"/><path d="M 192.5 310 L 167.5 310 L 167.5 510 L 192.5 510" fill="none" stroke="#0e8088" stroke-miterlimit="10" stroke-dasharray="3 3" pointer-events="none"/><path d="M 142.5 410 L 167.5 410" fill="none" stroke="#0e8088" stroke-miterlimit="10" stroke-dasharray="3 3" pointer-events="none"/><path d="M 242.5 550 L 217.5 550 L 217.5 630 L 242.5 630" fill="none" stroke="#10739e" stroke-miterlimit="10" stroke-dasharray="3 3" pointer-events="none"/><path d="M 192.5 590 L 217.5 590" fill="none" stroke="#10739e" stroke-miterlimit="10" stroke-dasharray="3 3" pointer-events="none"/><g fill="rgb(0, 0, 0)" font-family="Times New Roman" pointer-events="none" text-anchor="middle" font-size="14px"><text x="62.5" y="176.5">Level 1</text></g><g fill="rgb(0, 0, 0)" font-family="Times New Roman" pointer-events="none" text-anchor="middle" font-size="14px"><text x="112" y="414.27">Level 2</text></g><g fill="rgb(0, 0, 0)" font-family="Times New Roman" pointer-events="none" text-anchor="middle" font-size="14px"><text x="162" y="595.5">Level 3</text></g><path d="M 242.5 550 L 467.5 550" fill="none" stroke="#10739e" stroke-miterlimit="10" stroke-dasharray="3 3" pointer-events="none"/><path d="M 242.5 630 L 482.5 630" fill="none" stroke="#10739e" stroke-miterlimit="10" stroke-dasharray="3 3" pointer-events="none"/><path d="M 192.5 310 L 330 310" fill="none" stroke="#0e8088" stroke-miterlimit="10" stroke-dasharray="3 3" pointer-events="none"/><path d="M 192.5 510 L 360 510" fill="none" stroke="#0e8088" stroke-miterlimit="10" stroke-dasharray="3 3" pointer-events="none"/><path d="M 142.5 70 L 210 69.94" fill="none" stroke="#6c8ebf" stroke-miterlimit="10" stroke-dasharray="3 3" pointer-events="none"/><path d="M 141.5 270 L 238.5 270" fill="none" stroke="#6c8ebf" stroke-miterlimit="10" stroke-dasharray="3 3" pointer-events="none"/><ellipse cx="270" cy="220" rx="30" ry="30" fill="#dae8fc" stroke="#6c8ebf" pointer-events="none"/><g fill="rgb(0, 0, 0)" font-family="Times New Roman" pointer-events="none" text-anchor="middle" font-size="14px"><text x="269.5" y="225.5">D 2.1</text></g><ellipse cx="330" cy="340" rx="30" ry="30" fill="#b0e3e6" stroke="#0e8088" pointer-events="none"/><g fill="rgb(0, 0, 0)" font-family="Times New Roman" pointer-events="none" text-anchor="middle" font-size="14px"><text x="329.5" y="345.5">D 3.1</text></g><ellipse cx="390" cy="460" rx="30" ry="30" fill="#b0e3e6" stroke="#0e8088" pointer-events="none"/><g fill="rgb(0, 0, 0)" font-family="Times New Roman" pointer-events="none" text-anchor="middle" font-size="14px"><text x="389.5" y="465.5">D 4.1</text></g><ellipse cx="470" cy="580" rx="30" ry="30" fill="#b1ddf0" stroke="#10739e" pointer-events="none"/><g fill="rgb(0, 0, 0)" font-family="Times New Roman" pointer-events="none" text-anchor="middle" font-size="14px"><text x="469.5" y="585.5">D 5.1</text></g></g></svg>